<svg xmlns="http://www.w3.org/2000/svg" xmlns:xlink="http://www.w3.org/1999/xlink" version="1.1" x="0px" y="0px" viewBox="0 0 100 125" enable-background="new 0 0 100 100" xml:space="preserve"><path d="M50,80c6.9,0,12.5-5.6,12.5-12.5h20V65c0-17.1-13.2-31.1-30-32.4V10H60V5H40v5h7.5v22.6c-16.8,1.3-30,15.3-30,32.4v2.5h20  C37.5,74.4,43.1,80,50,80z M50,75c-4.1,0-7.5-3.4-7.5-7.5h15C57.5,71.6,54.1,75,50,75z M50,37.5c14.3,0,26.1,11,27.4,25H22.6  C23.9,48.5,35.7,37.5,50,37.5z"/><rect x="47.5" y="85" width="5" height="10"/><rect x="31.6" y="78.4" transform="matrix(-0.7071 -0.7071 0.7071 -0.7071 -0.7843 166.495)" width="5" height="10"/><rect x="63.4" y="78.4" transform="matrix(-0.7071 0.7071 -0.7071 -0.7071 171.495 95.7843)" width="5" height="10"/><text x="0" y="115" fill="#000000" font-size="5px" font-weight="bold" font-family="'Helvetica Neue', Helvetica, Arial-Unicode, Arial, Sans-serif">Created by Arthur Shlain</text><text x="0" y="120" fill="#000000" font-size="5px" font-weight="bold" font-family="'Helvetica Neue', Helvetica, Arial-Unicode, Arial, Sans-serif">from the Noun Project</text></svg>