<svg xmlns="http://www.w3.org/2000/svg" xmlns:xlink="http://www.w3.org/1999/xlink" version="1.1" x="0px" y="0px" viewBox="0 0 100 125" enable-background="new 0 0 100 100" xml:space="preserve"><g><path d="M19.4,48.9c0.1-0.1,0.2-0.1,0.2-0.1c2.7-2,3.3-5.9,1.3-8.6c-0.1-0.1-0.2-0.3-0.4-0.4c3-1.5,6.3-2.8,9.7-3.6   c0.1,1.7,0.3,3.5,0.6,5.2c0.7,4.4,2.1,8.8,3.9,13l-3.8,3.8C26.5,55.7,22.6,52.5,19.4,48.9z M49.5,33.6c0-2.2,0.5-4.4,1.4-6.6   c-3-2.8-6.3-5.2-9.7-7c-0.9,2.4-3.2,3.9-5.7,3.9c0,0,0,0,0,0c-0.7,0-1.4-0.1-2.1-0.4c-0.3-0.1-0.6-0.3-0.9-0.4   c-0.9,3.7-1.3,7.5-1.1,11.5c1.4-0.3,2.9-0.6,4.3-0.8C40.2,33.1,44.9,33.1,49.5,33.6z M66.4,52.6c-0.7-0.1-1.4-0.3-2.2-0.5   L51.6,64.7c3.8,0.4,7.6,0.4,11.3-0.1c1.8-0.2,3.7-0.5,5.4-1c-0.1-1.8-0.3-3.6-0.6-5.4C67.4,56.4,66.9,54.5,66.4,52.6z M69.6,52.8   c-0.3,0-0.5,0-0.8,0c-0.3,0-0.7,0-1,0c0.5,1.8,0.9,3.5,1.2,5.3c0.3,1.8,0.5,3.5,0.6,5.2c3.7-1,7.2-2.4,10.5-4.3   c-0.2-0.2-0.4-0.4-0.6-0.7c-2-2.7-1.4-6.6,1.3-8.6c0.1,0,0.1-0.1,0.2-0.1c-0.2-0.2-0.3-0.4-0.5-0.6C77.4,51,73.9,52.5,69.6,52.8z    M35.6,53.4l14.6-14.6c-0.4-1.3-0.6-2.6-0.7-4c-4.6-0.5-9.2-0.5-13.7,0.2c-1.5,0.2-3,0.5-4.5,0.8c0.1,1.8,0.3,3.5,0.6,5.3   C32.7,45.3,33.9,49.5,35.6,53.4z M50.5,65.8l-4,4c3.7,3.9,7.9,7.1,12.4,9.3c0,0,0-0.1,0-0.1c0.9-2.4,3.2-4,5.8-4   c0.7,0,1.4,0.1,2.1,0.4c0.2,0.1,0.4,0.2,0.6,0.3c0.8-3.4,1.1-7.1,1-10.8c-1.7,0.4-3.5,0.7-5.3,0.9C58.9,66.4,54.6,66.3,50.5,65.8z    M19.5,38.9c3.3-1.7,6.8-3.1,10.6-4c-0.2-4.3,0.3-8.6,1.3-12.6c-0.3-0.3-0.6-0.6-0.9-1c-5.8,4.1-10.3,9.9-12.7,16.7   c0.4,0.1,0.8,0.3,1.2,0.5C19.2,38.6,19.4,38.8,19.5,38.9z M81.3,48.4c0.2,0.2,0.4,0.4,0.6,0.7c0.8-0.3,1.6-0.5,2.4-0.5   c0-0.9-0.1-1.8-0.2-2.7C83.3,46.7,82.4,47.6,81.3,48.4z M90.1,37c-0.3,0.7-1.7,4.1-4.7,7.5c0.2,1.4,0.3,2.8,0.4,4.3   c0.6,0.1,1.1,0.3,1.6,0.6c0.7,0.4,1.3,1,1.8,1.6c2,2.7,1.4,6.6-1.3,8.6c-1.1,0.8-2.3,1.2-3.7,1.2c0,0-0.1,0-0.1,0   c-2.4,7.7-7.2,14.3-13.6,18.9c0.3,1.2,0.2,2.4-0.2,3.6c-0.9,2.4-3.2,4-5.8,4c-0.7,0-1.4-0.1-2.1-0.4c-1.1-0.4-2-1.1-2.7-2   c-3.1,0.9-6.3,1.4-9.7,1.4c-5.8,0-11.3-1.4-16.2-3.9l-1.2,1.2l-0.8,0.1c-0.5,0-0.9,0-1.4,0c-3.6,0-6.4-1-8.3-3   c-2.1-2.2-3.2-5.5-3.1-9.8l0-0.9l0.7-0.7c-3.5-5.6-5.5-12.2-5.5-19.3c0-0.1,0-0.2,0-0.3c-0.5-0.1-1-0.3-1.5-0.6   c-0.7-0.4-1.3-1-1.8-1.6c-2-2.7-1.4-6.6,1.3-8.6c1.2-0.9,2.7-1.3,4.1-1.2C19,30.5,23.7,24.3,29.8,20c-0.6-1.4-0.6-3-0.1-4.4   c0.9-2.4,3.2-4,5.8-4c0.7,0,1.4,0.1,2.1,0.4c1.4,0.5,2.5,1.5,3.3,2.9c2.9-0.8,6-1.2,9.1-1.2c3.6,0,7,0.5,10.3,1.5   c1.4-1.1,3-2.1,4.7-3.1l0.9-0.5l8.2,8.3l-1.6,1.8c2.9,2.4,5.5,5.3,7.6,8.5l2.3-2.2l7.1,6.9c-6.1-15.8-21.4-27-39.3-27   C26.9,7.9,8,26.7,8,50C8,73.2,26.9,92,50.1,92C73.3,92,92.2,73.2,92.2,50C92.2,45.4,91.5,41.1,90.1,37z M81,59.9   c-3.5,2.1-7.3,3.7-11.4,4.7c0.2,4.1-0.2,8.1-1.1,11.8c0.6,0.5,1.2,1.2,1.6,1.9C76,74,80.5,67.9,82.8,60.7c-0.5-0.1-1.1-0.4-1.6-0.6   C81.1,60,81.1,59.9,81,59.9z M58.6,80.4c-4.7-2.3-9.1-5.6-13-9.7L35,81.3c4.6,2.3,9.7,3.6,15.1,3.6c3.1,0,6.1-0.4,9-1.2   C58.6,82.7,58.4,81.5,58.6,80.4z M71,38.7l7.9-7.5c-2-3.2-4.5-6-7.5-8.4l-7.8,8.6L71,38.7z M29.8,59c-4.4-2.6-8.4-5.8-11.6-9.5   c-0.7,0.3-1.5,0.5-2.3,0.5c0,0,0,0,0,0c-0.1,0-0.1,0-0.2,0c0,0,0,0,0,0c0,6.7,1.9,12.9,5.1,18.3l9.2-9.2C30,59,29.9,59,29.8,59z    M41.6,18.8c3.5,1.8,6.8,4.2,9.8,7c1.6-3.4,4.1-6.6,7.5-9.5c-2.8-0.8-5.8-1.2-8.9-1.2c-3,0-5.8,0.4-8.6,1.1   C41.7,17,41.7,17.9,41.6,18.8z M33.7,22.6c0.6,0.2,1.2,0.3,1.8,0.3c0,0,0,0,0,0c2.2,0,4.1-1.4,4.9-3.4c0.5-1.3,0.4-2.7-0.2-4   c-0.6-1.3-1.6-2.2-2.9-2.7c-0.6-0.2-1.2-0.3-1.8-0.3c-2.2,0-4.1,1.4-4.9,3.4c-0.5,1.3-0.4,2.7,0.2,4C31.4,21.2,32.4,22.2,33.7,22.6   z M66.4,76.3c-0.6-0.2-1.2-0.3-1.8-0.3c-2.2,0-4.1,1.4-4.9,3.4c-0.5,1.3-0.4,2.7,0.2,4c0.6,1.3,1.6,2.2,2.9,2.7   c0.6,0.2,1.2,0.3,1.8,0.3c2.2,0,4.1-1.4,4.9-3.4c0.5-1.3,0.4-2.7-0.2-4C68.8,77.8,67.7,76.8,66.4,76.3z M15.9,38.6   c-1.1,0-2.2,0.4-3.1,1c-2.3,1.7-2.8,5-1.1,7.3c0.4,0.6,0.9,1,1.6,1.4c0.8,0.5,1.7,0.7,2.6,0.7c0,0,0,0,0,0c1.1,0,2.2-0.4,3.1-1   c2.3-1.7,2.8-5,1.1-7.3c-0.4-0.6-0.9-1-1.6-1.4C17.8,38.9,16.9,38.6,15.9,38.6z M87.4,58.9c2.3-1.7,2.8-5,1.1-7.3   c-0.4-0.6-0.9-1-1.6-1.4c-0.8-0.5-1.7-0.7-2.6-0.7c-1.1,0-2.2,0.4-3.1,1c-2.3,1.7-2.8,5-1.1,7.3c0.4,0.6,0.9,1,1.6,1.4   c0.8,0.5,1.7,0.7,2.6,0.7C85.4,59.9,86.5,59.6,87.4,58.9z M87.2,36.7l-4.9-4.8L71,42.6L59.7,31.5L70.2,20l-4.8-4.8   c-10.3,6.1-15.3,15.7-12.2,23.5l0.3,0.9L21.9,71.2c0,3.4,0.8,5.9,2.3,7.5c1.4,1.4,3.5,2.1,6.3,2.1h0c0.3,0,0.6,0,0.9,0l31.9-31.9   l0.8,0.3c1.9,0.6,3.3,0.8,4.6,0.8c0.2,0,0.4,0,0.6,0C80.3,49.2,85.8,39.6,87.2,36.7z"/></g><text x="0" y="115" fill="#000000" font-size="5px" font-weight="bold" font-family="'Helvetica Neue', Helvetica, Arial-Unicode, Arial, Sans-serif">Created by Nikki Santilli</text><text x="0" y="120" fill="#000000" font-size="5px" font-weight="bold" font-family="'Helvetica Neue', Helvetica, Arial-Unicode, Arial, Sans-serif">from the Noun Project</text></svg>