<svg xmlns="http://www.w3.org/2000/svg" xmlns:xlink="http://www.w3.org/1999/xlink" version="1.1" x="0px" y="0px" viewBox="0 0 100 125" enable-background="new 0 0 100 100" xml:space="preserve"><path d="M14,67.5h23.5C37.5,74.4,43.1,80,50,80s12.5-5.6,12.5-12.5H86L52.5,34V10H60V5H40v5h7.5v24L14,67.5z M50,75  c-4.1,0-7.5-3.4-7.5-7.5h15C57.5,71.6,54.1,75,50,75z M50,38.5l24,24H26L50,38.5z"/><rect x="47.5" y="85" width="5" height="10"/><rect x="29.1" y="80.9" transform="matrix(0.7071 -0.7071 0.7071 0.7071 -48.995 48.5355)" width="10" height="5"/><rect x="63.4" y="78.4" transform="matrix(0.7071 -0.7071 0.7071 0.7071 -39.6751 71.0355)" width="5" height="10"/><text x="0" y="115" fill="#000000" font-size="5px" font-weight="bold" font-family="'Helvetica Neue', Helvetica, Arial-Unicode, Arial, Sans-serif">Created by Arthur Shlain</text><text x="0" y="120" fill="#000000" font-size="5px" font-weight="bold" font-family="'Helvetica Neue', Helvetica, Arial-Unicode, Arial, Sans-serif">from the Noun Project</text></svg>