<svg xmlns="http://www.w3.org/2000/svg" xmlns:xlink="http://www.w3.org/1999/xlink" version="1.1" x="0px" y="0px" viewBox="0 0 100 125" enable-background="new 0 0 100 100" xml:space="preserve"><path fill="#000000" d="M88.826,53.803c-1.093-0.17-2.115,0.548-2.288,1.639C83.653,73.714,68.084,87,49.521,87  c-0.021,0-0.04,0-0.061,0c-10.502,0-20.58-4.194-27.656-11.555c-6.688-6.958-10.153-16.113-9.756-25.801  c0.863-21.06,17.325-37.55,37.476-37.55c14.622,0,28.027,8.723,34.075,21.906H65c-1.104,0-2,0.896-2,2s0.896,2,2,2h23  c1.104,0,2-0.896,2-2V11c0-1.104-0.896-2-2-2s-2,0.896-2,2v18.843C78.825,16.656,64.768,8.1,49.524,8.1  C27.22,8.1,9.002,26.282,8.051,49.493c-0.442,10.788,3.418,20.973,10.87,28.724C26.748,86.359,37.875,91,49.46,91  c0.022,0,0.044,0,0.066,0c20.542,0,37.769-14.709,40.962-34.934C90.662,54.975,89.917,53.976,88.826,53.803z"/><path fill="#000000" d="M36,51.258v10.484C36,65.193,38.807,68,42.258,68h15.484C61.193,68,64,65.193,64,61.742V51.258  c0-3.364-2.669-6.108-6-6.245V41c0-5.467-3.14-9.007-8-9.007c-4.85,0-7.99,3.525-8,8.99c-0.003,1.729-0.004,3.052-0.003,4.031  C38.668,45.152,36,47.895,36,51.258z M46,41.004C46.004,38.721,46.702,36,50,36c3.306,0,4,2.719,4,5v4h-8.003  C45.996,44.029,45.997,42.718,46,41.004z M40,51.258C40,50.013,41.013,49,42.258,49H44h0.008h13.734C58.987,49,60,50.013,60,51.258  v10.484C60,62.987,58.987,64,57.742,64H42.258C41.013,64,40,62.987,40,61.742V51.258z"/><text x="0" y="115" fill="#000000" font-size="5px" font-weight="bold" font-family="'Helvetica Neue', Helvetica, Arial-Unicode, Arial, Sans-serif">Created by Austin Condiff</text><text x="0" y="120" fill="#000000" font-size="5px" font-weight="bold" font-family="'Helvetica Neue', Helvetica, Arial-Unicode, Arial, Sans-serif">from the Noun Project</text></svg>